<svg height="488pt" viewBox="0 0 488 488" width="488pt" xmlns="http://www.w3.org/2000/svg"><path d="m32 200h16v16h-16zm0 0"/><path d="m64 200h16v16h-16zm0 0"/><path d="m96 200h16v16h-16zm0 0"/><path d="m464 152h-16c0 59.054688-45.976562 107.464844-104 111.59375v-130.90625l-8 8-73.230469-73.230469c19.65625-17.058593 45.222657-27.457031 73.230469-27.457031v-16c-70.574219 0-128 57.425781-128 128 0 5.433594.449219 10.742188 1.113281 16h-209.113281v320h432v-251.625c19.847656-22.550781 32-52.039062 32-84.375zm-136 111.59375c-24.863281-1.769531-47.472656-11.640625-65.230469-27.050781l65.230469-65.230469zm-76.542969-184.824219 73.230469 73.230469-73.230469 73.230469c-17.058593-19.65625-27.457031-45.222657-27.457031-73.230469s10.398438-53.574219 27.457031-73.230469zm-39.242187 105.230469c4.601562 17.777344 12.847656 34.089844 24.023437 48h-220.238281v-48zm-196.214844 288v-224h235.625c22.550781 19.847656 52.039062 32 84.375 32 30.265625 0 58.0625-10.617188 80-28.238281v220.238281zm0 0"/><path d="m336 0v152h152c0-83.945312-68.054688-152-152-152zm0 0" fill="#f0bc5e"/><path d="m443.960938 122.136719c-7.433594-26.832031-24.570313-49.863281-48.242188-64.847657l8.554688-13.511718c27.03125 17.109375 46.605468 43.421875 55.101562 74.09375zm0 0"/><path d="m380.785156 49.34375c-4.824218-2.121094-9.839844-3.902344-14.921875-5.3125l4.273438-15.421875c5.816406 1.613281 11.558593 3.65625 17.078125 6.070313zm0 0"/><path d="m240 408v48h160v-48zm96 16v16h-32v-16zm-80 0h32v16h-32zm128 16h-32v-16h32zm0 0"/><path d="m240 312h160v72h-160zm0 0" fill="#f0bc5e"/><path d="m240 376h160v16h-160zm0 0"/><path d="m240 344h160v16h-160zm0 0"/><path d="m240 312h160v16h-160zm0 0"/><g fill="#f0bc5e"><path d="m80 456h-48v-80h48zm0 0"/><path d="m144 456h-48v-128h48zm0 0"/><path d="m208 456h-48v-96h48zm0 0"/></g><path d="m63.984375 320.03125 38.445313-28.847656 9.601562 12.800781-38.445312 28.847656zm0 0"/><path d="m130.675781 302.285156 7.15625-14.308594 35.472657 17.734376-7.152344 14.3125zm0 0"/><path d="m56 360c-13.230469 0-24-10.769531-24-24s10.769531-24 24-24 24 10.769531 24 24-10.769531 24-24 24zm0 0" fill="#f0bc5e"/><path d="m120 312c-13.230469 0-24-10.769531-24-24s10.769531-24 24-24 24 10.769531 24 24-10.769531 24-24 24zm0 0" fill="#f0bc5e"/><path d="m184 344c-13.230469 0-24-10.769531-24-24s10.769531-24 24-24 24 10.769531 24 24-10.769531 24-24 24zm0 0" fill="#f0bc5e"/></svg>